# xmcd CD database file
#
# Track frame offsets:
#	150
#	10612
#	22554
#	33388
#	46346
#	59793
#	72080
#	85494
#	100507
#	113838
#	127661
#	142084
#	155560
#	168896
#	181708
#	195931
#	209449
#	216997
#	227753
#	241711
#	252705
#	264899
#	279147
#	293568
#
# Disc length: 4331 seconds
#
# Revision: 0
# Processed by: cddbd v1.5.2PL0 Copyright (c) Steve Scherf et al.
# Submitted via: CDex 1.70beta2
#
DISCID=3c10e918
DTITLE=Various Artist - Jazz Roads CD334 - Bebop - Fats Navarro Vol.2 (1947)
DYEAR=2008
DGENRE=Jazz
TTITLE0='Fats' Navarro And His Thin Men - Fat Girl
TTITLE1='Fats' Navarro And His Thin Men - Ice Freezes Red
TTITLE2='Fats' Navarro And His Thin Men - Eb Pob
TTITLE3='Fats' Navarro And His Thin Men - Goin' To Minton's
TTITLE4=Tadd Dameron Sextet - The Chase (1)
TTITLE5=Tadd Dameron Sextet - The Chase (2)
TTITLE6=Tadd Dameron Sextet - The Squirrel (1)
TTITLE7=Tadd Dameron Sextet - The Squirrel (2)
TTITLE8=Tadd Dameron Sextet - Our Delight (1)
TTITLE9=Tadd Dameron Sextet - Our Delight (2)
TTITLE10=Tadd Dameron Sextet - Dameronia (1)
TTITLE11=Tadd Dameron Sextet - Dameronia (2)
TTITLE12=Tadd Dameron Sextet - A Be Bop Carroll
TTITLE13=Tadd Dameron And His Band - The Tadd Walk
TTITLE14=Tadd Dameron And His Band - Gone With The Wind
TTITLE15=Tadd Dameron And His Band - That Someone Must Be You
TTITLE16=Barry Ulanov's All Star Metronome Jazzmen - 52nd Street Theme
TTITLE17=Barry Ulanov's All Star Metronome Jazzmen - Donna Lee
TTITLE18=Barry Ulanov's All Star Metronome Jazzmen - Everything I Have Is Yours
TTITLE19=Barry Ulanov's All Star Metronome Jazzmen - Fats Flats (Hot House)
TTITLE20=Barry Ulanov's All Star Metronome Jazzmen - Tea For Two
TTITLE21=Barry Ulanov's All Star Metronome Jazzmen - Don't Blame Me
TTITLE22=Barry Ulanov's All Star Metronome Jazzmen - Groovin' High
TTITLE23=Barry Ulanov's All Star Metronome Jazzmen - Koko and Anthropology
EXTD=YEAR: 2008
EXTT0=
EXTT1=
EXTT2=
EXTT3=
EXTT4=
EXTT5=
EXTT6=
EXTT7=
EXTT8=
EXTT9=
EXTT10=
EXTT11=
EXTT12=
EXTT13=
EXTT14=
EXTT15=
EXTT16=
EXTT17=
EXTT18=
EXTT19=
EXTT20=
EXTT21=
EXTT22=
EXTT23=
PLAYORDER=
